Coordinates
version=1
nRows=8
nColumns=40
inDegrees=yes

Units are S.I. units (second, meters, Newtons, ...)
Angles are in degrees.

endheader
time	pelvis_tilt	pelvis_list	pelvis_rotation	pelvis_tx	pelvis_ty	pelvis_tz	hip_flexion_r	hip_adduction_r	hip_rotation_r	knee_angle_r	knee_angle_r_beta	ankle_angle_r	subtalar_angle_r	mtp_angle_r	hip_flexion_l	hip_adduction_l	hip_rotation_l	knee_angle_l	knee_angle_l_beta	ankle_angle_l	subtalar_angle_l	mtp_angle_l	lumbar_extension	lumbar_bending	lumbar_rotation	arm_flex_r	arm_add_r	arm_rot_r	elbow_flex_r	pro_sup_r	wrist_flex_r	wrist_dev_r	arm_flex_l	arm_add_l	arm_rot_l	elbow_flex_l	pro_sup_l	wrist_flex_l	wrist_dev_l
     39.00500000	     -5.08676184	     -4.35915890	      2.39655326	      1.10528162	      0.91877514	      0.45402953	     -1.42570826	     -2.42327865	    -15.18514524	     28.29638424	     28.29638424	     13.52545734	     -0.88022392	    -10.78495922	     28.91514259	     -5.67778825	     -5.35832859	     26.62380717	     26.62380717	      6.73639135	    -15.92077147	      6.55275047	     -5.43902134	      5.78421922	      4.08401230	     41.33674562	    -15.76490971	     -9.72904795	    108.88418143	     43.89082643	      0.00000000	      0.00000000	    -19.09933324	     -5.03918696	      9.03078319	     21.85313808	     44.23311418	      0.00000000	      0.00000000
     39.01628571	     -5.10438376	     -4.37645142	      2.16092490	      1.10512127	      0.92034457	      0.45165726	      0.09243837	     -2.91333609	    -14.25511222	     31.55799345	     31.55799345	     10.12979309	     -4.47388156	    -15.93064271	     28.12994160	     -5.70481282	     -5.76785668	     26.44829350	     26.44829350	      7.43802811	    -15.54625320	      6.16832710	     -5.56032096	      5.88195323	      4.68506338	     39.10200667	    -16.40836843	    -10.64947501	    110.82787140	     43.95873103	      0.00000000	      0.00000000	    -17.70005753	     -5.39014307	      9.53172424	     22.38048941	     44.27980885	      0.00000000	      0.00000000
     39.02757143	     -5.12003115	     -4.24527784	      1.90520201	      1.10469120	      0.92173052	      0.44926850	      2.06211017	     -3.74733315	    -13.61935945	     35.79218896	     35.79218896	      8.58411542	     -6.47593599	    -15.86352915	     27.27522426	     -5.57315226	     -6.29700311	     26.15117815	     26.15117815	      8.00741392	    -15.17779015	      5.77438506	     -5.62790316	      5.81325188	      4.24326392	     37.60755767	    -16.14298434	    -10.40155045	    110.65228214	     43.96589198	      0.00000000	      0.00000000	    -16.75177817	     -5.48031413	      9.56795678	     22.88641681	     44.30644189	      0.00000000	      0.00000000
     39.03885714	     -5.11510084	     -4.23161327	      1.62950530	      1.10404716	      0.92296989	      0.44726298	      4.15222723	     -4.25781725	    -12.67824788	     40.02660379	     40.02660379	      7.06243027	     -8.86268593	    -14.88187599	     26.44941636	     -5.59683251	     -6.81851661	     25.90467987	     25.90467987	      8.53114100	    -14.77184729	      5.11631987	     -5.76610635	      5.84244064	      4.03607733	     35.81806440	    -16.06452568	    -10.36851295	    110.65243715	     43.98406196	      0.00000000	      0.00000000	    -15.66697779	     -5.75448608	      9.51002933	     23.82998155	     44.36042062	      0.00000000	      0.00000000
     39.05014286	     -5.08263630	     -4.05795402	      1.34631313	      1.10322767	      0.92409348	      0.44528080	      6.31160792	     -5.02425048	    -12.01522596	     44.29827400	     44.29827400	      5.64316404	    -10.51713072	    -14.19382366	     25.52727866	     -5.43035435	     -7.39480587	     25.53444854	     25.53444854	      9.00317793	    -14.37908883	      4.70120721	     -5.95348548	      5.69945702	      3.66394894	     34.06333468	    -15.76853807	    -10.21478600	    110.35842704	     43.99164159	      0.00000000	      0.00000000	    -14.48552796	     -6.03849622	      9.43423328	     24.54345469	     44.40357487	      0.00000000	      0.00000000
     39.06142857	     -5.08751795	     -3.98758357	      1.06997446	      1.10220446	      0.92500993	      0.44358017	      8.59407011	     -5.49663658	    -11.18415321	     48.43820579	     48.43820579	      4.39983564	    -12.32385931	    -12.88885120	     24.71585131	     -5.37866904	     -7.88766702	     25.23452091	     25.23452091	      9.43538255	    -13.98704136	      4.19584378	     -6.11155132	      5.64167922	      3.40077297	     32.07564558	    -15.58108438	    -10.17075470	    109.88137787	     44.00842517	      0.00000000	      0.00000000	    -13.21129086	     -6.40282896	      9.29207777	     25.46886818	     44.45826678	      0.00000000	      0.00000000
     39.07271429	     -5.02528882	     -4.01552168	      0.81176264	      1.10104850	      0.92582563	      0.44209463	     11.05590201	     -5.78891437	    -10.36491760	     52.95373840	     52.95373840	      5.79126540	    -12.37861081	     -4.70444056	     23.84616297	     -5.44231033	     -8.37838236	     24.88545214	     24.88545214	      9.30147079	    -13.80230678	      2.34652652	     -6.38277349	      5.70858253	      3.42493585	     29.75754911	    -15.48506110	    -10.75334610	    109.56692213	     44.14853633	      0.00000000	      0.00000000	    -12.02966497	     -6.99977697	      9.07746986	     27.58997373	     44.64083229	      0.00000000	      0.00000000
     39.08400000	     -4.97025743	     -3.97366131	      0.55714602	      1.09981828	      0.92660249	      0.44067389	     13.27082235	     -6.07679025	     -9.65326634	     56.55881803	     56.55881803	      4.86849070	    -13.75059839	     -3.85090715	     23.03812549	     -5.41789785	     -8.80360114	     24.66413548	     24.66413548	      9.73827995	    -13.44964079	      1.97381083	     -6.60330143	      5.68634209	      3.21340350	     27.59780148	    -15.27174155	    -10.77005115	    108.38703814	     44.19716498	      0.00000000	      0.00000000	    -10.49135366	     -7.45895090	      8.90161418	     28.51557931	     44.71362422	      0.00000000	      0.00000000
